%TF.GenerationSoftware,KiCad,Pcbnew,9.0.2*%
%TF.CreationDate,2025-07-10T09:42:35-04:00*%
%TF.ProjectId,hackpad,6861636b-7061-4642-9e6b-696361645f70,rev?*%
%TF.SameCoordinates,Original*%
%TF.FileFunction,Soldermask,Top*%
%TF.FilePolarity,Negative*%
%FSLAX46Y46*%
G04 Gerber Fmt 4.6, Leading zero omitted, Abs format (unit mm)*
G04 Created by KiCad (PCBNEW 9.0.2) date 2025-07-10 09:42:35*
%MOMM*%
%LPD*%
G01*
G04 APERTURE LIST*
G04 Aperture macros list*
%AMRoundRect*
0 Rectangle with rounded corners*
0 $1 Rounding radius*
0 $2 $3 $4 $5 $6 $7 $8 $9 X,Y pos of 4 corners*
0 Add a 4 corners polygon primitive as box body*
4,1,4,$2,$3,$4,$5,$6,$7,$8,$9,$2,$3,0*
0 Add four circle primitives for the rounded corners*
1,1,$1+$1,$2,$3*
1,1,$1+$1,$4,$5*
1,1,$1+$1,$6,$7*
1,1,$1+$1,$8,$9*
0 Add four rect primitives between the rounded corners*
20,1,$1+$1,$2,$3,$4,$5,0*
20,1,$1+$1,$4,$5,$6,$7,0*
20,1,$1+$1,$6,$7,$8,$9,0*
20,1,$1+$1,$8,$9,$2,$3,0*%
G04 Aperture macros list end*
%ADD10RoundRect,0.250000X-1.050000X-1.050000X1.050000X-1.050000X1.050000X1.050000X-1.050000X1.050000X0*%
%ADD11C,2.600000*%
%ADD12C,1.700000*%
%ADD13C,4.000000*%
%ADD14C,2.200000*%
%ADD15RoundRect,0.152400X1.063600X0.609600X-1.063600X0.609600X-1.063600X-0.609600X1.063600X-0.609600X0*%
%ADD16C,1.524000*%
%ADD17RoundRect,0.152400X-1.063600X-0.609600X1.063600X-0.609600X1.063600X0.609600X-1.063600X0.609600X0*%
%ADD18C,1.500000*%
%ADD19R,2.000000X2.000000*%
%ADD20C,2.000000*%
%ADD21C,3.200000*%
G04 APERTURE END LIST*
D10*
%TO.C,D8*%
X142370000Y-82410000D03*
D11*
X146180000Y-82410000D03*
%TD*%
D10*
%TO.C,D4*%
X142370000Y-61860000D03*
D11*
X146180000Y-61860000D03*
%TD*%
D12*
%TO.C,SW7*%
X193870000Y-59720000D03*
D13*
X198950000Y-59720000D03*
D12*
X204030000Y-59720000D03*
D14*
X201490000Y-54640000D03*
X195140000Y-57180000D03*
%TD*%
D15*
%TO.C,U1*%
X171225000Y-31720000D03*
D16*
X172060000Y-31720000D03*
D15*
X171225000Y-34260000D03*
D16*
X172060000Y-34260000D03*
D15*
X171225000Y-36800000D03*
D16*
X172060000Y-36800000D03*
D15*
X171225000Y-39340000D03*
D16*
X172060000Y-39340000D03*
D15*
X171225000Y-41880000D03*
D16*
X172060000Y-41880000D03*
D15*
X171225000Y-44420000D03*
D16*
X172060000Y-44420000D03*
D15*
X171225000Y-46960000D03*
D16*
X172060000Y-46960000D03*
X187300000Y-46960000D03*
D17*
X188135000Y-46960000D03*
D16*
X187300000Y-44420000D03*
D17*
X188135000Y-44420000D03*
D16*
X187300000Y-41880000D03*
D17*
X188135000Y-41880000D03*
D16*
X187300000Y-39340000D03*
D17*
X188135000Y-39340000D03*
D16*
X187300000Y-36800000D03*
D17*
X188135000Y-36800000D03*
D16*
X187300000Y-34260000D03*
D17*
X188135000Y-34260000D03*
D16*
X187300000Y-31720000D03*
D17*
X188135000Y-31720000D03*
%TD*%
D12*
%TO.C,SW2*%
X155490000Y-78860000D03*
D13*
X160570000Y-78860000D03*
D12*
X165650000Y-78860000D03*
D14*
X163110000Y-73780000D03*
X156760000Y-76320000D03*
%TD*%
D10*
%TO.C,D11*%
X142370000Y-102960000D03*
D11*
X146180000Y-102960000D03*
%TD*%
D12*
%TO.C,SW10*%
X193960000Y-78940000D03*
D13*
X199040000Y-78940000D03*
D12*
X204120000Y-78940000D03*
D14*
X201580000Y-73860000D03*
X195230000Y-76400000D03*
%TD*%
D10*
%TO.C,D6*%
X142370000Y-75560000D03*
D11*
X146180000Y-75560000D03*
%TD*%
D10*
%TO.C,D5*%
X142370000Y-68710000D03*
D11*
X146180000Y-68710000D03*
%TD*%
D10*
%TO.C,D3*%
X142370000Y-55010000D03*
D11*
X146180000Y-55010000D03*
%TD*%
D10*
%TO.C,D9*%
X142370000Y-89260000D03*
D11*
X146180000Y-89260000D03*
%TD*%
D12*
%TO.C,SW5*%
X155520000Y-98070000D03*
D13*
X160600000Y-98070000D03*
D12*
X165680000Y-98070000D03*
D14*
X163140000Y-92990000D03*
X156790000Y-95530000D03*
%TD*%
D10*
%TO.C,D10*%
X142370000Y-96110000D03*
D11*
X146180000Y-96110000D03*
%TD*%
D12*
%TO.C,SW1*%
X155490000Y-59720000D03*
D13*
X160570000Y-59720000D03*
D12*
X165650000Y-59720000D03*
D14*
X163110000Y-54640000D03*
X156760000Y-57180000D03*
%TD*%
D12*
%TO.C,SW9*%
X174650000Y-98010000D03*
D13*
X179730000Y-98010000D03*
D12*
X184810000Y-98010000D03*
D14*
X182270000Y-92930000D03*
X175920000Y-95470000D03*
%TD*%
D12*
%TO.C,SW11*%
X193870000Y-98000000D03*
D13*
X198950000Y-98000000D03*
D12*
X204030000Y-98000000D03*
D14*
X201490000Y-92920000D03*
X195140000Y-95460000D03*
%TD*%
D12*
%TO.C,SW3*%
X174620000Y-59720000D03*
D13*
X179700000Y-59720000D03*
D12*
X184780000Y-59720000D03*
D14*
X182240000Y-54640000D03*
X175890000Y-57180000D03*
%TD*%
D18*
%TO.C,SW4*%
X186995000Y-76380000D03*
X186995000Y-81380000D03*
D19*
X172495000Y-76380000D03*
D20*
X172495000Y-81380000D03*
X172495000Y-78880000D03*
D21*
X179995000Y-73280000D03*
X179995000Y-84480000D03*
%TD*%
M02*
