%TF.GenerationSoftware,KiCad,Pcbnew,9.0.2*%
%TF.CreationDate,2025-07-10T09:42:35-04:00*%
%TF.ProjectId,hackpad,6861636b-7061-4642-9e6b-696361645f70,rev?*%
%TF.SameCoordinates,Original*%
%TF.FileFunction,Legend,Top*%
%TF.FilePolarity,Positive*%
%FSLAX46Y46*%
G04 Gerber Fmt 4.6, Leading zero omitted, Abs format (unit mm)*
G04 Created by KiCad (PCBNEW 9.0.2) date 2025-07-10 09:42:35*
%MOMM*%
%LPD*%
G01*
G04 APERTURE LIST*
%ADD10C,0.150000*%
%ADD11C,0.101600*%
%ADD12C,0.120000*%
%ADD13C,0.127000*%
%ADD14C,0.100000*%
%ADD15C,0.504000*%
G04 APERTURE END LIST*
D10*
X143536905Y-79094819D02*
X143536905Y-78094819D01*
X143536905Y-78094819D02*
X143775000Y-78094819D01*
X143775000Y-78094819D02*
X143917857Y-78142438D01*
X143917857Y-78142438D02*
X144013095Y-78237676D01*
X144013095Y-78237676D02*
X144060714Y-78332914D01*
X144060714Y-78332914D02*
X144108333Y-78523390D01*
X144108333Y-78523390D02*
X144108333Y-78666247D01*
X144108333Y-78666247D02*
X144060714Y-78856723D01*
X144060714Y-78856723D02*
X144013095Y-78951961D01*
X144013095Y-78951961D02*
X143917857Y-79047200D01*
X143917857Y-79047200D02*
X143775000Y-79094819D01*
X143775000Y-79094819D02*
X143536905Y-79094819D01*
X144679762Y-78523390D02*
X144584524Y-78475771D01*
X144584524Y-78475771D02*
X144536905Y-78428152D01*
X144536905Y-78428152D02*
X144489286Y-78332914D01*
X144489286Y-78332914D02*
X144489286Y-78285295D01*
X144489286Y-78285295D02*
X144536905Y-78190057D01*
X144536905Y-78190057D02*
X144584524Y-78142438D01*
X144584524Y-78142438D02*
X144679762Y-78094819D01*
X144679762Y-78094819D02*
X144870238Y-78094819D01*
X144870238Y-78094819D02*
X144965476Y-78142438D01*
X144965476Y-78142438D02*
X145013095Y-78190057D01*
X145013095Y-78190057D02*
X145060714Y-78285295D01*
X145060714Y-78285295D02*
X145060714Y-78332914D01*
X145060714Y-78332914D02*
X145013095Y-78428152D01*
X145013095Y-78428152D02*
X144965476Y-78475771D01*
X144965476Y-78475771D02*
X144870238Y-78523390D01*
X144870238Y-78523390D02*
X144679762Y-78523390D01*
X144679762Y-78523390D02*
X144584524Y-78571009D01*
X144584524Y-78571009D02*
X144536905Y-78618628D01*
X144536905Y-78618628D02*
X144489286Y-78713866D01*
X144489286Y-78713866D02*
X144489286Y-78904342D01*
X144489286Y-78904342D02*
X144536905Y-78999580D01*
X144536905Y-78999580D02*
X144584524Y-79047200D01*
X144584524Y-79047200D02*
X144679762Y-79094819D01*
X144679762Y-79094819D02*
X144870238Y-79094819D01*
X144870238Y-79094819D02*
X144965476Y-79047200D01*
X144965476Y-79047200D02*
X145013095Y-78999580D01*
X145013095Y-78999580D02*
X145060714Y-78904342D01*
X145060714Y-78904342D02*
X145060714Y-78713866D01*
X145060714Y-78713866D02*
X145013095Y-78618628D01*
X145013095Y-78618628D02*
X144965476Y-78571009D01*
X144965476Y-78571009D02*
X144870238Y-78523390D01*
X142108095Y-85164819D02*
X142108095Y-84164819D01*
X142679523Y-85164819D02*
X142250952Y-84593390D01*
X142679523Y-84164819D02*
X142108095Y-84736247D01*
X143536905Y-58544819D02*
X143536905Y-57544819D01*
X143536905Y-57544819D02*
X143775000Y-57544819D01*
X143775000Y-57544819D02*
X143917857Y-57592438D01*
X143917857Y-57592438D02*
X144013095Y-57687676D01*
X144013095Y-57687676D02*
X144060714Y-57782914D01*
X144060714Y-57782914D02*
X144108333Y-57973390D01*
X144108333Y-57973390D02*
X144108333Y-58116247D01*
X144108333Y-58116247D02*
X144060714Y-58306723D01*
X144060714Y-58306723D02*
X144013095Y-58401961D01*
X144013095Y-58401961D02*
X143917857Y-58497200D01*
X143917857Y-58497200D02*
X143775000Y-58544819D01*
X143775000Y-58544819D02*
X143536905Y-58544819D01*
X144965476Y-57878152D02*
X144965476Y-58544819D01*
X144727381Y-57497200D02*
X144489286Y-58211485D01*
X144489286Y-58211485D02*
X145108333Y-58211485D01*
X142108095Y-64614819D02*
X142108095Y-63614819D01*
X142679523Y-64614819D02*
X142250952Y-64043390D01*
X142679523Y-63614819D02*
X142108095Y-64186247D01*
X197616667Y-52253200D02*
X197759524Y-52300819D01*
X197759524Y-52300819D02*
X197997619Y-52300819D01*
X197997619Y-52300819D02*
X198092857Y-52253200D01*
X198092857Y-52253200D02*
X198140476Y-52205580D01*
X198140476Y-52205580D02*
X198188095Y-52110342D01*
X198188095Y-52110342D02*
X198188095Y-52015104D01*
X198188095Y-52015104D02*
X198140476Y-51919866D01*
X198140476Y-51919866D02*
X198092857Y-51872247D01*
X198092857Y-51872247D02*
X197997619Y-51824628D01*
X197997619Y-51824628D02*
X197807143Y-51777009D01*
X197807143Y-51777009D02*
X197711905Y-51729390D01*
X197711905Y-51729390D02*
X197664286Y-51681771D01*
X197664286Y-51681771D02*
X197616667Y-51586533D01*
X197616667Y-51586533D02*
X197616667Y-51491295D01*
X197616667Y-51491295D02*
X197664286Y-51396057D01*
X197664286Y-51396057D02*
X197711905Y-51348438D01*
X197711905Y-51348438D02*
X197807143Y-51300819D01*
X197807143Y-51300819D02*
X198045238Y-51300819D01*
X198045238Y-51300819D02*
X198188095Y-51348438D01*
X198521429Y-51300819D02*
X198759524Y-52300819D01*
X198759524Y-52300819D02*
X198950000Y-51586533D01*
X198950000Y-51586533D02*
X199140476Y-52300819D01*
X199140476Y-52300819D02*
X199378572Y-51300819D01*
X199664286Y-51300819D02*
X200330952Y-51300819D01*
X200330952Y-51300819D02*
X199902381Y-52300819D01*
D11*
X170696190Y-26993479D02*
X170696190Y-27507526D01*
X170696190Y-27507526D02*
X170726428Y-27568002D01*
X170726428Y-27568002D02*
X170756666Y-27598241D01*
X170756666Y-27598241D02*
X170817142Y-27628479D01*
X170817142Y-27628479D02*
X170938095Y-27628479D01*
X170938095Y-27628479D02*
X170998571Y-27598241D01*
X170998571Y-27598241D02*
X171028809Y-27568002D01*
X171028809Y-27568002D02*
X171059047Y-27507526D01*
X171059047Y-27507526D02*
X171059047Y-26993479D01*
X171694047Y-27628479D02*
X171331190Y-27628479D01*
X171512618Y-27628479D02*
X171512618Y-26993479D01*
X171512618Y-26993479D02*
X171452142Y-27084193D01*
X171452142Y-27084193D02*
X171391666Y-27144669D01*
X171391666Y-27144669D02*
X171331190Y-27174907D01*
D10*
X159236667Y-71393200D02*
X159379524Y-71440819D01*
X159379524Y-71440819D02*
X159617619Y-71440819D01*
X159617619Y-71440819D02*
X159712857Y-71393200D01*
X159712857Y-71393200D02*
X159760476Y-71345580D01*
X159760476Y-71345580D02*
X159808095Y-71250342D01*
X159808095Y-71250342D02*
X159808095Y-71155104D01*
X159808095Y-71155104D02*
X159760476Y-71059866D01*
X159760476Y-71059866D02*
X159712857Y-71012247D01*
X159712857Y-71012247D02*
X159617619Y-70964628D01*
X159617619Y-70964628D02*
X159427143Y-70917009D01*
X159427143Y-70917009D02*
X159331905Y-70869390D01*
X159331905Y-70869390D02*
X159284286Y-70821771D01*
X159284286Y-70821771D02*
X159236667Y-70726533D01*
X159236667Y-70726533D02*
X159236667Y-70631295D01*
X159236667Y-70631295D02*
X159284286Y-70536057D01*
X159284286Y-70536057D02*
X159331905Y-70488438D01*
X159331905Y-70488438D02*
X159427143Y-70440819D01*
X159427143Y-70440819D02*
X159665238Y-70440819D01*
X159665238Y-70440819D02*
X159808095Y-70488438D01*
X160141429Y-70440819D02*
X160379524Y-71440819D01*
X160379524Y-71440819D02*
X160570000Y-70726533D01*
X160570000Y-70726533D02*
X160760476Y-71440819D01*
X160760476Y-71440819D02*
X160998572Y-70440819D01*
X161331905Y-70536057D02*
X161379524Y-70488438D01*
X161379524Y-70488438D02*
X161474762Y-70440819D01*
X161474762Y-70440819D02*
X161712857Y-70440819D01*
X161712857Y-70440819D02*
X161808095Y-70488438D01*
X161808095Y-70488438D02*
X161855714Y-70536057D01*
X161855714Y-70536057D02*
X161903333Y-70631295D01*
X161903333Y-70631295D02*
X161903333Y-70726533D01*
X161903333Y-70726533D02*
X161855714Y-70869390D01*
X161855714Y-70869390D02*
X161284286Y-71440819D01*
X161284286Y-71440819D02*
X161903333Y-71440819D01*
X143060714Y-99644819D02*
X143060714Y-98644819D01*
X143060714Y-98644819D02*
X143298809Y-98644819D01*
X143298809Y-98644819D02*
X143441666Y-98692438D01*
X143441666Y-98692438D02*
X143536904Y-98787676D01*
X143536904Y-98787676D02*
X143584523Y-98882914D01*
X143584523Y-98882914D02*
X143632142Y-99073390D01*
X143632142Y-99073390D02*
X143632142Y-99216247D01*
X143632142Y-99216247D02*
X143584523Y-99406723D01*
X143584523Y-99406723D02*
X143536904Y-99501961D01*
X143536904Y-99501961D02*
X143441666Y-99597200D01*
X143441666Y-99597200D02*
X143298809Y-99644819D01*
X143298809Y-99644819D02*
X143060714Y-99644819D01*
X144584523Y-99644819D02*
X144013095Y-99644819D01*
X144298809Y-99644819D02*
X144298809Y-98644819D01*
X144298809Y-98644819D02*
X144203571Y-98787676D01*
X144203571Y-98787676D02*
X144108333Y-98882914D01*
X144108333Y-98882914D02*
X144013095Y-98930533D01*
X145536904Y-99644819D02*
X144965476Y-99644819D01*
X145251190Y-99644819D02*
X145251190Y-98644819D01*
X145251190Y-98644819D02*
X145155952Y-98787676D01*
X145155952Y-98787676D02*
X145060714Y-98882914D01*
X145060714Y-98882914D02*
X144965476Y-98930533D01*
X142108095Y-105714819D02*
X142108095Y-104714819D01*
X142679523Y-105714819D02*
X142250952Y-105143390D01*
X142679523Y-104714819D02*
X142108095Y-105286247D01*
X197230476Y-71473200D02*
X197373333Y-71520819D01*
X197373333Y-71520819D02*
X197611428Y-71520819D01*
X197611428Y-71520819D02*
X197706666Y-71473200D01*
X197706666Y-71473200D02*
X197754285Y-71425580D01*
X197754285Y-71425580D02*
X197801904Y-71330342D01*
X197801904Y-71330342D02*
X197801904Y-71235104D01*
X197801904Y-71235104D02*
X197754285Y-71139866D01*
X197754285Y-71139866D02*
X197706666Y-71092247D01*
X197706666Y-71092247D02*
X197611428Y-71044628D01*
X197611428Y-71044628D02*
X197420952Y-70997009D01*
X197420952Y-70997009D02*
X197325714Y-70949390D01*
X197325714Y-70949390D02*
X197278095Y-70901771D01*
X197278095Y-70901771D02*
X197230476Y-70806533D01*
X197230476Y-70806533D02*
X197230476Y-70711295D01*
X197230476Y-70711295D02*
X197278095Y-70616057D01*
X197278095Y-70616057D02*
X197325714Y-70568438D01*
X197325714Y-70568438D02*
X197420952Y-70520819D01*
X197420952Y-70520819D02*
X197659047Y-70520819D01*
X197659047Y-70520819D02*
X197801904Y-70568438D01*
X198135238Y-70520819D02*
X198373333Y-71520819D01*
X198373333Y-71520819D02*
X198563809Y-70806533D01*
X198563809Y-70806533D02*
X198754285Y-71520819D01*
X198754285Y-71520819D02*
X198992381Y-70520819D01*
X199897142Y-71520819D02*
X199325714Y-71520819D01*
X199611428Y-71520819D02*
X199611428Y-70520819D01*
X199611428Y-70520819D02*
X199516190Y-70663676D01*
X199516190Y-70663676D02*
X199420952Y-70758914D01*
X199420952Y-70758914D02*
X199325714Y-70806533D01*
X200516190Y-70520819D02*
X200611428Y-70520819D01*
X200611428Y-70520819D02*
X200706666Y-70568438D01*
X200706666Y-70568438D02*
X200754285Y-70616057D01*
X200754285Y-70616057D02*
X200801904Y-70711295D01*
X200801904Y-70711295D02*
X200849523Y-70901771D01*
X200849523Y-70901771D02*
X200849523Y-71139866D01*
X200849523Y-71139866D02*
X200801904Y-71330342D01*
X200801904Y-71330342D02*
X200754285Y-71425580D01*
X200754285Y-71425580D02*
X200706666Y-71473200D01*
X200706666Y-71473200D02*
X200611428Y-71520819D01*
X200611428Y-71520819D02*
X200516190Y-71520819D01*
X200516190Y-71520819D02*
X200420952Y-71473200D01*
X200420952Y-71473200D02*
X200373333Y-71425580D01*
X200373333Y-71425580D02*
X200325714Y-71330342D01*
X200325714Y-71330342D02*
X200278095Y-71139866D01*
X200278095Y-71139866D02*
X200278095Y-70901771D01*
X200278095Y-70901771D02*
X200325714Y-70711295D01*
X200325714Y-70711295D02*
X200373333Y-70616057D01*
X200373333Y-70616057D02*
X200420952Y-70568438D01*
X200420952Y-70568438D02*
X200516190Y-70520819D01*
X143536905Y-72244819D02*
X143536905Y-71244819D01*
X143536905Y-71244819D02*
X143775000Y-71244819D01*
X143775000Y-71244819D02*
X143917857Y-71292438D01*
X143917857Y-71292438D02*
X144013095Y-71387676D01*
X144013095Y-71387676D02*
X144060714Y-71482914D01*
X144060714Y-71482914D02*
X144108333Y-71673390D01*
X144108333Y-71673390D02*
X144108333Y-71816247D01*
X144108333Y-71816247D02*
X144060714Y-72006723D01*
X144060714Y-72006723D02*
X144013095Y-72101961D01*
X144013095Y-72101961D02*
X143917857Y-72197200D01*
X143917857Y-72197200D02*
X143775000Y-72244819D01*
X143775000Y-72244819D02*
X143536905Y-72244819D01*
X144965476Y-71244819D02*
X144775000Y-71244819D01*
X144775000Y-71244819D02*
X144679762Y-71292438D01*
X144679762Y-71292438D02*
X144632143Y-71340057D01*
X144632143Y-71340057D02*
X144536905Y-71482914D01*
X144536905Y-71482914D02*
X144489286Y-71673390D01*
X144489286Y-71673390D02*
X144489286Y-72054342D01*
X144489286Y-72054342D02*
X144536905Y-72149580D01*
X144536905Y-72149580D02*
X144584524Y-72197200D01*
X144584524Y-72197200D02*
X144679762Y-72244819D01*
X144679762Y-72244819D02*
X144870238Y-72244819D01*
X144870238Y-72244819D02*
X144965476Y-72197200D01*
X144965476Y-72197200D02*
X145013095Y-72149580D01*
X145013095Y-72149580D02*
X145060714Y-72054342D01*
X145060714Y-72054342D02*
X145060714Y-71816247D01*
X145060714Y-71816247D02*
X145013095Y-71721009D01*
X145013095Y-71721009D02*
X144965476Y-71673390D01*
X144965476Y-71673390D02*
X144870238Y-71625771D01*
X144870238Y-71625771D02*
X144679762Y-71625771D01*
X144679762Y-71625771D02*
X144584524Y-71673390D01*
X144584524Y-71673390D02*
X144536905Y-71721009D01*
X144536905Y-71721009D02*
X144489286Y-71816247D01*
X142108095Y-78314819D02*
X142108095Y-77314819D01*
X142679523Y-78314819D02*
X142250952Y-77743390D01*
X142679523Y-77314819D02*
X142108095Y-77886247D01*
X143536905Y-65394819D02*
X143536905Y-64394819D01*
X143536905Y-64394819D02*
X143775000Y-64394819D01*
X143775000Y-64394819D02*
X143917857Y-64442438D01*
X143917857Y-64442438D02*
X144013095Y-64537676D01*
X144013095Y-64537676D02*
X144060714Y-64632914D01*
X144060714Y-64632914D02*
X144108333Y-64823390D01*
X144108333Y-64823390D02*
X144108333Y-64966247D01*
X144108333Y-64966247D02*
X144060714Y-65156723D01*
X144060714Y-65156723D02*
X144013095Y-65251961D01*
X144013095Y-65251961D02*
X143917857Y-65347200D01*
X143917857Y-65347200D02*
X143775000Y-65394819D01*
X143775000Y-65394819D02*
X143536905Y-65394819D01*
X145013095Y-64394819D02*
X144536905Y-64394819D01*
X144536905Y-64394819D02*
X144489286Y-64871009D01*
X144489286Y-64871009D02*
X144536905Y-64823390D01*
X144536905Y-64823390D02*
X144632143Y-64775771D01*
X144632143Y-64775771D02*
X144870238Y-64775771D01*
X144870238Y-64775771D02*
X144965476Y-64823390D01*
X144965476Y-64823390D02*
X145013095Y-64871009D01*
X145013095Y-64871009D02*
X145060714Y-64966247D01*
X145060714Y-64966247D02*
X145060714Y-65204342D01*
X145060714Y-65204342D02*
X145013095Y-65299580D01*
X145013095Y-65299580D02*
X144965476Y-65347200D01*
X144965476Y-65347200D02*
X144870238Y-65394819D01*
X144870238Y-65394819D02*
X144632143Y-65394819D01*
X144632143Y-65394819D02*
X144536905Y-65347200D01*
X144536905Y-65347200D02*
X144489286Y-65299580D01*
X142108095Y-71464819D02*
X142108095Y-70464819D01*
X142679523Y-71464819D02*
X142250952Y-70893390D01*
X142679523Y-70464819D02*
X142108095Y-71036247D01*
X143536905Y-51694819D02*
X143536905Y-50694819D01*
X143536905Y-50694819D02*
X143775000Y-50694819D01*
X143775000Y-50694819D02*
X143917857Y-50742438D01*
X143917857Y-50742438D02*
X144013095Y-50837676D01*
X144013095Y-50837676D02*
X144060714Y-50932914D01*
X144060714Y-50932914D02*
X144108333Y-51123390D01*
X144108333Y-51123390D02*
X144108333Y-51266247D01*
X144108333Y-51266247D02*
X144060714Y-51456723D01*
X144060714Y-51456723D02*
X144013095Y-51551961D01*
X144013095Y-51551961D02*
X143917857Y-51647200D01*
X143917857Y-51647200D02*
X143775000Y-51694819D01*
X143775000Y-51694819D02*
X143536905Y-51694819D01*
X144441667Y-50694819D02*
X145060714Y-50694819D01*
X145060714Y-50694819D02*
X144727381Y-51075771D01*
X144727381Y-51075771D02*
X144870238Y-51075771D01*
X144870238Y-51075771D02*
X144965476Y-51123390D01*
X144965476Y-51123390D02*
X145013095Y-51171009D01*
X145013095Y-51171009D02*
X145060714Y-51266247D01*
X145060714Y-51266247D02*
X145060714Y-51504342D01*
X145060714Y-51504342D02*
X145013095Y-51599580D01*
X145013095Y-51599580D02*
X144965476Y-51647200D01*
X144965476Y-51647200D02*
X144870238Y-51694819D01*
X144870238Y-51694819D02*
X144584524Y-51694819D01*
X144584524Y-51694819D02*
X144489286Y-51647200D01*
X144489286Y-51647200D02*
X144441667Y-51599580D01*
X142108095Y-57764819D02*
X142108095Y-56764819D01*
X142679523Y-57764819D02*
X142250952Y-57193390D01*
X142679523Y-56764819D02*
X142108095Y-57336247D01*
X143536905Y-85944819D02*
X143536905Y-84944819D01*
X143536905Y-84944819D02*
X143775000Y-84944819D01*
X143775000Y-84944819D02*
X143917857Y-84992438D01*
X143917857Y-84992438D02*
X144013095Y-85087676D01*
X144013095Y-85087676D02*
X144060714Y-85182914D01*
X144060714Y-85182914D02*
X144108333Y-85373390D01*
X144108333Y-85373390D02*
X144108333Y-85516247D01*
X144108333Y-85516247D02*
X144060714Y-85706723D01*
X144060714Y-85706723D02*
X144013095Y-85801961D01*
X144013095Y-85801961D02*
X143917857Y-85897200D01*
X143917857Y-85897200D02*
X143775000Y-85944819D01*
X143775000Y-85944819D02*
X143536905Y-85944819D01*
X144584524Y-85944819D02*
X144775000Y-85944819D01*
X144775000Y-85944819D02*
X144870238Y-85897200D01*
X144870238Y-85897200D02*
X144917857Y-85849580D01*
X144917857Y-85849580D02*
X145013095Y-85706723D01*
X145013095Y-85706723D02*
X145060714Y-85516247D01*
X145060714Y-85516247D02*
X145060714Y-85135295D01*
X145060714Y-85135295D02*
X145013095Y-85040057D01*
X145013095Y-85040057D02*
X144965476Y-84992438D01*
X144965476Y-84992438D02*
X144870238Y-84944819D01*
X144870238Y-84944819D02*
X144679762Y-84944819D01*
X144679762Y-84944819D02*
X144584524Y-84992438D01*
X144584524Y-84992438D02*
X144536905Y-85040057D01*
X144536905Y-85040057D02*
X144489286Y-85135295D01*
X144489286Y-85135295D02*
X144489286Y-85373390D01*
X144489286Y-85373390D02*
X144536905Y-85468628D01*
X144536905Y-85468628D02*
X144584524Y-85516247D01*
X144584524Y-85516247D02*
X144679762Y-85563866D01*
X144679762Y-85563866D02*
X144870238Y-85563866D01*
X144870238Y-85563866D02*
X144965476Y-85516247D01*
X144965476Y-85516247D02*
X145013095Y-85468628D01*
X145013095Y-85468628D02*
X145060714Y-85373390D01*
X142108095Y-92014819D02*
X142108095Y-91014819D01*
X142679523Y-92014819D02*
X142250952Y-91443390D01*
X142679523Y-91014819D02*
X142108095Y-91586247D01*
X159266667Y-90603200D02*
X159409524Y-90650819D01*
X159409524Y-90650819D02*
X159647619Y-90650819D01*
X159647619Y-90650819D02*
X159742857Y-90603200D01*
X159742857Y-90603200D02*
X159790476Y-90555580D01*
X159790476Y-90555580D02*
X159838095Y-90460342D01*
X159838095Y-90460342D02*
X159838095Y-90365104D01*
X159838095Y-90365104D02*
X159790476Y-90269866D01*
X159790476Y-90269866D02*
X159742857Y-90222247D01*
X159742857Y-90222247D02*
X159647619Y-90174628D01*
X159647619Y-90174628D02*
X159457143Y-90127009D01*
X159457143Y-90127009D02*
X159361905Y-90079390D01*
X159361905Y-90079390D02*
X159314286Y-90031771D01*
X159314286Y-90031771D02*
X159266667Y-89936533D01*
X159266667Y-89936533D02*
X159266667Y-89841295D01*
X159266667Y-89841295D02*
X159314286Y-89746057D01*
X159314286Y-89746057D02*
X159361905Y-89698438D01*
X159361905Y-89698438D02*
X159457143Y-89650819D01*
X159457143Y-89650819D02*
X159695238Y-89650819D01*
X159695238Y-89650819D02*
X159838095Y-89698438D01*
X160171429Y-89650819D02*
X160409524Y-90650819D01*
X160409524Y-90650819D02*
X160600000Y-89936533D01*
X160600000Y-89936533D02*
X160790476Y-90650819D01*
X160790476Y-90650819D02*
X161028572Y-89650819D01*
X161885714Y-89650819D02*
X161409524Y-89650819D01*
X161409524Y-89650819D02*
X161361905Y-90127009D01*
X161361905Y-90127009D02*
X161409524Y-90079390D01*
X161409524Y-90079390D02*
X161504762Y-90031771D01*
X161504762Y-90031771D02*
X161742857Y-90031771D01*
X161742857Y-90031771D02*
X161838095Y-90079390D01*
X161838095Y-90079390D02*
X161885714Y-90127009D01*
X161885714Y-90127009D02*
X161933333Y-90222247D01*
X161933333Y-90222247D02*
X161933333Y-90460342D01*
X161933333Y-90460342D02*
X161885714Y-90555580D01*
X161885714Y-90555580D02*
X161838095Y-90603200D01*
X161838095Y-90603200D02*
X161742857Y-90650819D01*
X161742857Y-90650819D02*
X161504762Y-90650819D01*
X161504762Y-90650819D02*
X161409524Y-90603200D01*
X161409524Y-90603200D02*
X161361905Y-90555580D01*
X143060714Y-92794819D02*
X143060714Y-91794819D01*
X143060714Y-91794819D02*
X143298809Y-91794819D01*
X143298809Y-91794819D02*
X143441666Y-91842438D01*
X143441666Y-91842438D02*
X143536904Y-91937676D01*
X143536904Y-91937676D02*
X143584523Y-92032914D01*
X143584523Y-92032914D02*
X143632142Y-92223390D01*
X143632142Y-92223390D02*
X143632142Y-92366247D01*
X143632142Y-92366247D02*
X143584523Y-92556723D01*
X143584523Y-92556723D02*
X143536904Y-92651961D01*
X143536904Y-92651961D02*
X143441666Y-92747200D01*
X143441666Y-92747200D02*
X143298809Y-92794819D01*
X143298809Y-92794819D02*
X143060714Y-92794819D01*
X144584523Y-92794819D02*
X144013095Y-92794819D01*
X144298809Y-92794819D02*
X144298809Y-91794819D01*
X144298809Y-91794819D02*
X144203571Y-91937676D01*
X144203571Y-91937676D02*
X144108333Y-92032914D01*
X144108333Y-92032914D02*
X144013095Y-92080533D01*
X145203571Y-91794819D02*
X145298809Y-91794819D01*
X145298809Y-91794819D02*
X145394047Y-91842438D01*
X145394047Y-91842438D02*
X145441666Y-91890057D01*
X145441666Y-91890057D02*
X145489285Y-91985295D01*
X145489285Y-91985295D02*
X145536904Y-92175771D01*
X145536904Y-92175771D02*
X145536904Y-92413866D01*
X145536904Y-92413866D02*
X145489285Y-92604342D01*
X145489285Y-92604342D02*
X145441666Y-92699580D01*
X145441666Y-92699580D02*
X145394047Y-92747200D01*
X145394047Y-92747200D02*
X145298809Y-92794819D01*
X145298809Y-92794819D02*
X145203571Y-92794819D01*
X145203571Y-92794819D02*
X145108333Y-92747200D01*
X145108333Y-92747200D02*
X145060714Y-92699580D01*
X145060714Y-92699580D02*
X145013095Y-92604342D01*
X145013095Y-92604342D02*
X144965476Y-92413866D01*
X144965476Y-92413866D02*
X144965476Y-92175771D01*
X144965476Y-92175771D02*
X145013095Y-91985295D01*
X145013095Y-91985295D02*
X145060714Y-91890057D01*
X145060714Y-91890057D02*
X145108333Y-91842438D01*
X145108333Y-91842438D02*
X145203571Y-91794819D01*
X142108095Y-98864819D02*
X142108095Y-97864819D01*
X142679523Y-98864819D02*
X142250952Y-98293390D01*
X142679523Y-97864819D02*
X142108095Y-98436247D01*
X159236667Y-52253200D02*
X159379524Y-52300819D01*
X159379524Y-52300819D02*
X159617619Y-52300819D01*
X159617619Y-52300819D02*
X159712857Y-52253200D01*
X159712857Y-52253200D02*
X159760476Y-52205580D01*
X159760476Y-52205580D02*
X159808095Y-52110342D01*
X159808095Y-52110342D02*
X159808095Y-52015104D01*
X159808095Y-52015104D02*
X159760476Y-51919866D01*
X159760476Y-51919866D02*
X159712857Y-51872247D01*
X159712857Y-51872247D02*
X159617619Y-51824628D01*
X159617619Y-51824628D02*
X159427143Y-51777009D01*
X159427143Y-51777009D02*
X159331905Y-51729390D01*
X159331905Y-51729390D02*
X159284286Y-51681771D01*
X159284286Y-51681771D02*
X159236667Y-51586533D01*
X159236667Y-51586533D02*
X159236667Y-51491295D01*
X159236667Y-51491295D02*
X159284286Y-51396057D01*
X159284286Y-51396057D02*
X159331905Y-51348438D01*
X159331905Y-51348438D02*
X159427143Y-51300819D01*
X159427143Y-51300819D02*
X159665238Y-51300819D01*
X159665238Y-51300819D02*
X159808095Y-51348438D01*
X160141429Y-51300819D02*
X160379524Y-52300819D01*
X160379524Y-52300819D02*
X160570000Y-51586533D01*
X160570000Y-51586533D02*
X160760476Y-52300819D01*
X160760476Y-52300819D02*
X160998572Y-51300819D01*
X161903333Y-52300819D02*
X161331905Y-52300819D01*
X161617619Y-52300819D02*
X161617619Y-51300819D01*
X161617619Y-51300819D02*
X161522381Y-51443676D01*
X161522381Y-51443676D02*
X161427143Y-51538914D01*
X161427143Y-51538914D02*
X161331905Y-51586533D01*
X178396667Y-90543200D02*
X178539524Y-90590819D01*
X178539524Y-90590819D02*
X178777619Y-90590819D01*
X178777619Y-90590819D02*
X178872857Y-90543200D01*
X178872857Y-90543200D02*
X178920476Y-90495580D01*
X178920476Y-90495580D02*
X178968095Y-90400342D01*
X178968095Y-90400342D02*
X178968095Y-90305104D01*
X178968095Y-90305104D02*
X178920476Y-90209866D01*
X178920476Y-90209866D02*
X178872857Y-90162247D01*
X178872857Y-90162247D02*
X178777619Y-90114628D01*
X178777619Y-90114628D02*
X178587143Y-90067009D01*
X178587143Y-90067009D02*
X178491905Y-90019390D01*
X178491905Y-90019390D02*
X178444286Y-89971771D01*
X178444286Y-89971771D02*
X178396667Y-89876533D01*
X178396667Y-89876533D02*
X178396667Y-89781295D01*
X178396667Y-89781295D02*
X178444286Y-89686057D01*
X178444286Y-89686057D02*
X178491905Y-89638438D01*
X178491905Y-89638438D02*
X178587143Y-89590819D01*
X178587143Y-89590819D02*
X178825238Y-89590819D01*
X178825238Y-89590819D02*
X178968095Y-89638438D01*
X179301429Y-89590819D02*
X179539524Y-90590819D01*
X179539524Y-90590819D02*
X179730000Y-89876533D01*
X179730000Y-89876533D02*
X179920476Y-90590819D01*
X179920476Y-90590819D02*
X180158572Y-89590819D01*
X180587143Y-90590819D02*
X180777619Y-90590819D01*
X180777619Y-90590819D02*
X180872857Y-90543200D01*
X180872857Y-90543200D02*
X180920476Y-90495580D01*
X180920476Y-90495580D02*
X181015714Y-90352723D01*
X181015714Y-90352723D02*
X181063333Y-90162247D01*
X181063333Y-90162247D02*
X181063333Y-89781295D01*
X181063333Y-89781295D02*
X181015714Y-89686057D01*
X181015714Y-89686057D02*
X180968095Y-89638438D01*
X180968095Y-89638438D02*
X180872857Y-89590819D01*
X180872857Y-89590819D02*
X180682381Y-89590819D01*
X180682381Y-89590819D02*
X180587143Y-89638438D01*
X180587143Y-89638438D02*
X180539524Y-89686057D01*
X180539524Y-89686057D02*
X180491905Y-89781295D01*
X180491905Y-89781295D02*
X180491905Y-90019390D01*
X180491905Y-90019390D02*
X180539524Y-90114628D01*
X180539524Y-90114628D02*
X180587143Y-90162247D01*
X180587143Y-90162247D02*
X180682381Y-90209866D01*
X180682381Y-90209866D02*
X180872857Y-90209866D01*
X180872857Y-90209866D02*
X180968095Y-90162247D01*
X180968095Y-90162247D02*
X181015714Y-90114628D01*
X181015714Y-90114628D02*
X181063333Y-90019390D01*
X197140476Y-90533200D02*
X197283333Y-90580819D01*
X197283333Y-90580819D02*
X197521428Y-90580819D01*
X197521428Y-90580819D02*
X197616666Y-90533200D01*
X197616666Y-90533200D02*
X197664285Y-90485580D01*
X197664285Y-90485580D02*
X197711904Y-90390342D01*
X197711904Y-90390342D02*
X197711904Y-90295104D01*
X197711904Y-90295104D02*
X197664285Y-90199866D01*
X197664285Y-90199866D02*
X197616666Y-90152247D01*
X197616666Y-90152247D02*
X197521428Y-90104628D01*
X197521428Y-90104628D02*
X197330952Y-90057009D01*
X197330952Y-90057009D02*
X197235714Y-90009390D01*
X197235714Y-90009390D02*
X197188095Y-89961771D01*
X197188095Y-89961771D02*
X197140476Y-89866533D01*
X197140476Y-89866533D02*
X197140476Y-89771295D01*
X197140476Y-89771295D02*
X197188095Y-89676057D01*
X197188095Y-89676057D02*
X197235714Y-89628438D01*
X197235714Y-89628438D02*
X197330952Y-89580819D01*
X197330952Y-89580819D02*
X197569047Y-89580819D01*
X197569047Y-89580819D02*
X197711904Y-89628438D01*
X198045238Y-89580819D02*
X198283333Y-90580819D01*
X198283333Y-90580819D02*
X198473809Y-89866533D01*
X198473809Y-89866533D02*
X198664285Y-90580819D01*
X198664285Y-90580819D02*
X198902381Y-89580819D01*
X199807142Y-90580819D02*
X199235714Y-90580819D01*
X199521428Y-90580819D02*
X199521428Y-89580819D01*
X199521428Y-89580819D02*
X199426190Y-89723676D01*
X199426190Y-89723676D02*
X199330952Y-89818914D01*
X199330952Y-89818914D02*
X199235714Y-89866533D01*
X200759523Y-90580819D02*
X200188095Y-90580819D01*
X200473809Y-90580819D02*
X200473809Y-89580819D01*
X200473809Y-89580819D02*
X200378571Y-89723676D01*
X200378571Y-89723676D02*
X200283333Y-89818914D01*
X200283333Y-89818914D02*
X200188095Y-89866533D01*
X178366667Y-52253200D02*
X178509524Y-52300819D01*
X178509524Y-52300819D02*
X178747619Y-52300819D01*
X178747619Y-52300819D02*
X178842857Y-52253200D01*
X178842857Y-52253200D02*
X178890476Y-52205580D01*
X178890476Y-52205580D02*
X178938095Y-52110342D01*
X178938095Y-52110342D02*
X178938095Y-52015104D01*
X178938095Y-52015104D02*
X178890476Y-51919866D01*
X178890476Y-51919866D02*
X178842857Y-51872247D01*
X178842857Y-51872247D02*
X178747619Y-51824628D01*
X178747619Y-51824628D02*
X178557143Y-51777009D01*
X178557143Y-51777009D02*
X178461905Y-51729390D01*
X178461905Y-51729390D02*
X178414286Y-51681771D01*
X178414286Y-51681771D02*
X178366667Y-51586533D01*
X178366667Y-51586533D02*
X178366667Y-51491295D01*
X178366667Y-51491295D02*
X178414286Y-51396057D01*
X178414286Y-51396057D02*
X178461905Y-51348438D01*
X178461905Y-51348438D02*
X178557143Y-51300819D01*
X178557143Y-51300819D02*
X178795238Y-51300819D01*
X178795238Y-51300819D02*
X178938095Y-51348438D01*
X179271429Y-51300819D02*
X179509524Y-52300819D01*
X179509524Y-52300819D02*
X179700000Y-51586533D01*
X179700000Y-51586533D02*
X179890476Y-52300819D01*
X179890476Y-52300819D02*
X180128572Y-51300819D01*
X180414286Y-51300819D02*
X181033333Y-51300819D01*
X181033333Y-51300819D02*
X180700000Y-51681771D01*
X180700000Y-51681771D02*
X180842857Y-51681771D01*
X180842857Y-51681771D02*
X180938095Y-51729390D01*
X180938095Y-51729390D02*
X180985714Y-51777009D01*
X180985714Y-51777009D02*
X181033333Y-51872247D01*
X181033333Y-51872247D02*
X181033333Y-52110342D01*
X181033333Y-52110342D02*
X180985714Y-52205580D01*
X180985714Y-52205580D02*
X180938095Y-52253200D01*
X180938095Y-52253200D02*
X180842857Y-52300819D01*
X180842857Y-52300819D02*
X180557143Y-52300819D01*
X180557143Y-52300819D02*
X180461905Y-52253200D01*
X180461905Y-52253200D02*
X180414286Y-52205580D01*
X173961667Y-72087200D02*
X174104524Y-72134819D01*
X174104524Y-72134819D02*
X174342619Y-72134819D01*
X174342619Y-72134819D02*
X174437857Y-72087200D01*
X174437857Y-72087200D02*
X174485476Y-72039580D01*
X174485476Y-72039580D02*
X174533095Y-71944342D01*
X174533095Y-71944342D02*
X174533095Y-71849104D01*
X174533095Y-71849104D02*
X174485476Y-71753866D01*
X174485476Y-71753866D02*
X174437857Y-71706247D01*
X174437857Y-71706247D02*
X174342619Y-71658628D01*
X174342619Y-71658628D02*
X174152143Y-71611009D01*
X174152143Y-71611009D02*
X174056905Y-71563390D01*
X174056905Y-71563390D02*
X174009286Y-71515771D01*
X174009286Y-71515771D02*
X173961667Y-71420533D01*
X173961667Y-71420533D02*
X173961667Y-71325295D01*
X173961667Y-71325295D02*
X174009286Y-71230057D01*
X174009286Y-71230057D02*
X174056905Y-71182438D01*
X174056905Y-71182438D02*
X174152143Y-71134819D01*
X174152143Y-71134819D02*
X174390238Y-71134819D01*
X174390238Y-71134819D02*
X174533095Y-71182438D01*
X174866429Y-71134819D02*
X175104524Y-72134819D01*
X175104524Y-72134819D02*
X175295000Y-71420533D01*
X175295000Y-71420533D02*
X175485476Y-72134819D01*
X175485476Y-72134819D02*
X175723572Y-71134819D01*
X176533095Y-71468152D02*
X176533095Y-72134819D01*
X176295000Y-71087200D02*
X176056905Y-71801485D01*
X176056905Y-71801485D02*
X176675952Y-71801485D01*
D12*
%TO.C,D8*%
X143801660Y-80990000D02*
G75*
G02*
X143801660Y-83830000I2378340J-1420000D01*
G01*
%TO.C,D4*%
X143801660Y-60440000D02*
G75*
G02*
X143801660Y-63280000I2378340J-1420000D01*
G01*
%TO.C,SW7*%
X191965000Y-52735000D02*
X205935000Y-52735000D01*
X191965000Y-66705000D02*
X191965000Y-52735000D01*
X205935000Y-52735000D02*
X205935000Y-66705000D01*
X205935000Y-66705000D02*
X191965000Y-66705000D01*
D13*
%TO.C,U1*%
X170790000Y-47849000D02*
X170790000Y-30704000D01*
X172695000Y-49754000D02*
X186665000Y-49754000D01*
X175185000Y-28799000D02*
X175188728Y-27888728D01*
X175688728Y-27389000D02*
X183684000Y-27389000D01*
X184184000Y-27889000D02*
X184184000Y-28799000D01*
D14*
X186665000Y-28799000D02*
X172695000Y-28799000D01*
D13*
X186665000Y-28799000D02*
X172695000Y-28799000D01*
X188570000Y-47849000D02*
X188570000Y-30704000D01*
X170790000Y-30704000D02*
G75*
G02*
X172695000Y-28799000I1905001J-1D01*
G01*
X172695000Y-49754000D02*
G75*
G02*
X170790000Y-47849000I1J1905001D01*
G01*
X175188728Y-27888728D02*
G75*
G02*
X175688728Y-27389001I500018J-291D01*
G01*
X183684000Y-27389000D02*
G75*
G02*
X184184000Y-27889000I0J-500000D01*
G01*
X186665000Y-28799000D02*
G75*
G02*
X188570000Y-30704000I0J-1905000D01*
G01*
X188570000Y-47849000D02*
G75*
G02*
X186665000Y-49754000I-1905000J0D01*
G01*
D15*
X170982000Y-29040000D02*
G75*
G02*
X170478000Y-29040000I-252000J0D01*
G01*
X170478000Y-29040000D02*
G75*
G02*
X170982000Y-29040000I252000J0D01*
G01*
X172125000Y-29920000D02*
G75*
G02*
X171621000Y-29920000I-252000J0D01*
G01*
X171621000Y-29920000D02*
G75*
G02*
X172125000Y-29920000I252000J0D01*
G01*
D12*
%TO.C,SW2*%
X153585000Y-71875000D02*
X167555000Y-71875000D01*
X153585000Y-85845000D02*
X153585000Y-71875000D01*
X167555000Y-71875000D02*
X167555000Y-85845000D01*
X167555000Y-85845000D02*
X153585000Y-85845000D01*
%TO.C,D11*%
X143801660Y-101540000D02*
G75*
G02*
X143801660Y-104380000I2378340J-1420000D01*
G01*
%TO.C,SW10*%
X192055000Y-71955000D02*
X206025000Y-71955000D01*
X192055000Y-85925000D02*
X192055000Y-71955000D01*
X206025000Y-71955000D02*
X206025000Y-85925000D01*
X206025000Y-85925000D02*
X192055000Y-85925000D01*
%TO.C,D6*%
X143801660Y-74140000D02*
G75*
G02*
X143801660Y-76980000I2378340J-1420000D01*
G01*
%TO.C,D5*%
X143801660Y-67290000D02*
G75*
G02*
X143801660Y-70130000I2378340J-1420000D01*
G01*
%TO.C,D3*%
X143801660Y-53590000D02*
G75*
G02*
X143801660Y-56430000I2378340J-1420000D01*
G01*
%TO.C,D9*%
X143801660Y-87840000D02*
G75*
G02*
X143801660Y-90680000I2378340J-1420000D01*
G01*
%TO.C,SW5*%
X153615000Y-91085000D02*
X167585000Y-91085000D01*
X153615000Y-105055000D02*
X153615000Y-91085000D01*
X167585000Y-91085000D02*
X167585000Y-105055000D01*
X167585000Y-105055000D02*
X153615000Y-105055000D01*
%TO.C,D10*%
X143801660Y-94690000D02*
G75*
G02*
X143801660Y-97530000I2378340J-1420000D01*
G01*
%TO.C,SW1*%
X153585000Y-52735000D02*
X167555000Y-52735000D01*
X153585000Y-66705000D02*
X153585000Y-52735000D01*
X167555000Y-52735000D02*
X167555000Y-66705000D01*
X167555000Y-66705000D02*
X153585000Y-66705000D01*
%TO.C,SW9*%
X172745000Y-91025000D02*
X186715000Y-91025000D01*
X172745000Y-104995000D02*
X172745000Y-91025000D01*
X186715000Y-91025000D02*
X186715000Y-104995000D01*
X186715000Y-104995000D02*
X172745000Y-104995000D01*
%TO.C,SW11*%
X191965000Y-91015000D02*
X205935000Y-91015000D01*
X191965000Y-104985000D02*
X191965000Y-91015000D01*
X205935000Y-91015000D02*
X205935000Y-104985000D01*
X205935000Y-104985000D02*
X191965000Y-104985000D01*
%TO.C,SW3*%
X172715000Y-52735000D02*
X186685000Y-52735000D01*
X172715000Y-66705000D02*
X172715000Y-52735000D01*
X186685000Y-52735000D02*
X186685000Y-66705000D01*
X186685000Y-66705000D02*
X172715000Y-66705000D01*
%TO.C,SW4*%
X172195000Y-74780000D02*
X172795000Y-74780000D01*
X172495000Y-75080000D02*
X172195000Y-74780000D01*
X172795000Y-74780000D02*
X172495000Y-75080000D01*
X173895000Y-73080000D02*
X173895000Y-84780000D01*
X177995000Y-73080000D02*
X173895000Y-73080000D01*
X177995000Y-84780000D02*
X173895000Y-84780000D01*
X179495000Y-78880000D02*
X180495000Y-78880000D01*
X179995000Y-78380000D02*
X179995000Y-79380000D01*
X181995000Y-72980000D02*
X186095000Y-72980000D01*
X186095000Y-72980000D02*
X186095000Y-75580000D01*
X186095000Y-77580000D02*
X186095000Y-80180000D01*
X186095000Y-82180000D02*
X186095000Y-84780000D01*
X186095000Y-84780000D02*
X181995000Y-84780000D01*
X182995000Y-78880000D02*
G75*
G02*
X176995000Y-78880000I-3000000J0D01*
G01*
X176995000Y-78880000D02*
G75*
G02*
X182995000Y-78880000I3000000J0D01*
G01*
%TD*%
M02*
